<svg width="80" height="80" viewBox="0 0 80 80" fill="none" xmlns="http://www.w3.org/2000/svg">
<mask id="mask0_49_626" style="mask-type:alpha" maskUnits="userSpaceOnUse" x="0" y="0" width="80" height="80">
<rect width="80" height="80" fill="#D9D9D9"/>
</mask>
<g mask="url(#mask0_49_626)">
<path d="M26.9179 66.6668C26.3068 66.6668 25.7373 66.514 25.2096 66.2085C24.6818 65.9029 24.279 65.4724 24.0012 64.9168L17.5012 53.3335H22.3346L25.6679 60.0002H33.3346V56.6668H27.6679L24.3346 50.0002H15.6679L10.9179 41.6668C10.8068 41.3891 10.7096 41.1113 10.6262 40.8335C10.5429 40.5557 10.5012 40.2779 10.5012 40.0002C10.5012 39.7779 10.6401 39.2224 10.9179 38.3335L15.6679 30.0002H24.3346L27.6679 23.3335H33.3346V20.0002H25.6679L22.3346 26.6668H17.5012L24.0012 15.0835C24.279 14.5279 24.6818 14.0974 25.2096 13.7918C25.7373 13.4863 26.3068 13.3335 26.9179 13.3335H35.0012C35.9457 13.3335 36.7373 13.6529 37.3762 14.2918C38.0151 14.9307 38.3346 15.7224 38.3346 16.6668V30.0002H33.3346L30.0012 33.3335H38.3346V43.3335H31.0012L27.6679 36.6668H20.0012L16.6679 40.0002H25.6679L29.0012 46.6668H38.3346V63.3335C38.3346 64.2779 38.0151 65.0696 37.3762 65.7085C36.7373 66.3474 35.9457 66.6668 35.0012 66.6668H26.9179ZM45.0012 66.6668C44.0568 66.6668 43.2651 66.3474 42.6262 65.7085C41.9873 65.0696 41.6679 64.2779 41.6679 63.3335V46.6668H51.0012L54.3346 40.0002H63.3346L60.0012 36.6668H52.3346L49.0012 43.3335H41.6679V33.3335H50.0012L46.6679 30.0002H41.6679V16.6668C41.6679 15.7224 41.9873 14.9307 42.6262 14.2918C43.2651 13.6529 44.0568 13.3335 45.0012 13.3335H53.0846C53.6957 13.3335 54.2651 13.4863 54.7929 13.7918C55.3207 14.0974 55.7234 14.5279 56.0012 15.0835L62.5012 26.6668H57.6679L54.3346 20.0002H46.6679V23.3335H52.3346L55.6679 30.0002H64.3346L69.0846 38.3335C69.1957 38.6113 69.2929 38.8891 69.3762 39.1668C69.4596 39.4446 69.5012 39.7224 69.5012 40.0002C69.5012 40.2224 69.3623 40.7779 69.0846 41.6668L64.3346 50.0002H55.6679L52.3346 56.6668H46.6679V60.0002H54.3346L57.6679 53.3335H62.5012L56.0012 64.9168C55.7234 65.4724 55.3207 65.9029 54.7929 66.2085C54.2651 66.514 53.6957 66.6668 53.0846 66.6668H45.0012Z" fill="white"/>
</g>
</svg>
