<svg width="1080" height="1080" viewBox="0 0 1080 1080" fill="none" xmlns="http://www.w3.org/2000/svg">
<path d="M0 540C0 241.766 241.766 0 540 0C838.234 0 1080 241.766 1080 540C1080 838.234 838.234 1080 540 1080C241.766 1080 0 838.234 0 540Z" fill="#9172FE"/>
<mask id="mask0_131_422" style="mask-type:alpha" maskUnits="userSpaceOnUse" x="140" y="140" width="800" height="800">
<rect x="140" y="140" width="800" height="800" fill="#D9D9D9"/>
</mask>
<g mask="url(#mask0_131_422)">
<path d="M409.167 806.667C403.056 806.667 397.361 805.139 392.083 802.083C386.806 799.028 382.778 794.722 380 789.167L315 673.333H363.333L396.667 740H473.333V706.667H416.667L383.333 640H296.667L249.167 556.667C248.056 553.889 247.083 551.111 246.25 548.333C245.417 545.555 245 542.778 245 540C245 537.778 246.389 532.222 249.167 523.333L296.667 440H383.333L416.667 373.333H473.333V340H396.667L363.333 406.667H315L380 290.833C382.778 285.278 386.806 280.972 392.083 277.917C397.361 274.861 403.056 273.333 409.167 273.333H490C499.444 273.333 507.361 276.528 513.75 282.917C520.139 289.305 523.333 297.222 523.333 306.667V440H473.333L440 473.333H523.333V573.333H450L416.667 506.667H340L306.667 540H396.667L430 606.667H523.333V773.333C523.333 782.778 520.139 790.694 513.75 797.083C507.361 803.472 499.444 806.667 490 806.667H409.167ZM590 806.667C580.556 806.667 572.639 803.472 566.25 797.083C559.861 790.694 556.667 782.778 556.667 773.333V606.667H650L683.333 540H773.333L740 506.667H663.333L630 573.333H556.667V473.333H640L606.667 440H556.667V306.667C556.667 297.222 559.861 289.305 566.25 282.917C572.639 276.528 580.556 273.333 590 273.333H670.833C676.944 273.333 682.639 274.861 687.917 277.917C693.194 280.972 697.222 285.278 700 290.833L765 406.667H716.667L683.333 340H606.667V373.333H663.333L696.667 440H783.333L830.833 523.333C831.944 526.111 832.917 528.889 833.75 531.667C834.583 534.444 835 537.222 835 540C835 542.222 833.611 547.778 830.833 556.667L783.333 640H696.667L663.333 706.667H606.667V740H683.333L716.667 673.333H765L700 789.167C697.222 794.722 693.194 799.028 687.917 802.083C682.639 805.139 676.944 806.667 670.833 806.667H590Z" fill="#FFF6F6"/>
</g>
</svg>
